# xmcd CD database file generated by Grip 2.7
# 
# Track frame offsets:
#       150
#       10657
#       19937
#       39435
#       55505
#       69257
#       80762
#       96745
#       118432
#       131025
#       146087
#       158895
#       171687
#       192632
#       212442
#       231980
# 
# Disc length: 3293 seconds
# 
# Revision: 3
# Processed by: cddbd v1.4PL0 Copyright (c) Steve Scherf et al.
# Submitted via: Grip 2.7
# 
DISCID=ef0cdb10
DTITLE=Willie Nelson - 16 Biggest Hits
DYEAR=1998
DGENRE=Country
TTITLE0=Blue Eyes Crying In The Rain
TTITLE1=If You've Got The Money,I've Got The Time
TTITLE2=Georgia On My Mind
TTITLE3=Blue Skies
TTITLE4=My Heroes Have Always Been Cowboys
TTITLE5=On The Road Again
TTITLE6=Always On My Mind
TTITLE7=City Of New Orleans
TTITLE8=Forgiving You Was Easy
TTITLE9=Living In The Promiseland
TTITLE10=Midnight Rider
TTITLE11=Remember Me(When The Candle Lights Are Gleaming)
TTITLE12=Uncloudy Day
TTITLE13=Angel Flying Too Close To The Ground
TTITLE14=The Last Thing I Needed First Thing This Morning
TTITLE15=Nothing I Can Do About It Now
EXTD=
EXTT0=
EXTT1=
EXTT2=
EXTT3=
EXTT4=
EXTT5=
EXTT6=
EXTT7=
EXTT8=
EXTT9=
EXTT10=
EXTT11=
EXTT12=
EXTT13=
EXTT14=
EXTT15=
PLAYORDER=
